<svg width="628" height="300" viewBox="0 0 628 300" fill="none" xmlns="http://www.w3.org/2000/svg">
<g opacity="0.6">
<rect width="628" height="300" rx="21" fill="url(#paint0_radial_28_96)"/>
<g opacity="0.3">
<path d="M588.423 18V18.5H592.4C594.216 18.5 595.758 18.4998 597.091 18.5303L597.101 18.0303C597.964 18.05 598.741 18.0834 599.448 18.1367L599.411 18.6348C601.305 18.7775 602.638 19.0693 603.767 19.6445C604.556 20.0468 605.287 20.545 605.943 21.124L606.272 20.75C606.618 21.0548 606.944 21.3809 607.249 21.7266L606.876 22.0566C607.455 22.7134 607.953 23.4439 608.355 24.2334C608.931 25.3625 609.222 26.6945 609.365 28.5889L609.862 28.5508C609.916 29.2582 609.949 30.0353 609.969 30.8984L609.47 30.9102C609.5 32.2432 609.5 33.7838 609.5 35.5996V39.5791H610V41.5684H609.5V49.5273H610V51.5166H609.5V59.4746H610V61.4639H609.5V69.4229H610V71.4121H609.5V79.3701H610V81.3604H609.5V89.3184H610V91.3076H609.5V99.2656H610V101.256H609.5V109.214H610V111.203H609.5V119.162H610V121.151H609.5V129.109H610V131.1H609.5V139.058H610V141.047H609.5V149.005H610V150.995H609.5V158.953H610V160.942H609.5V168.9H610V170.891H609.5V178.849H610V180.838H609.5V188.797H610V190.786H609.5V198.744H610V200.734H609.5V208.692H610V210.682H609.5V218.64H610V220.63H609.5V228.588H610V230.577H609.5V238.536H610V240.525H609.5V248.483H610V250.473H609.5V258.432H610V260.421H609.5V264.4C609.5 266.216 609.5 267.757 609.47 269.09L609.969 269.101C609.949 269.964 609.916 270.741 609.862 271.448L609.365 271.411C609.222 273.305 608.931 274.638 608.355 275.767C607.953 276.556 607.455 277.287 606.876 277.943L607.249 278.272C606.944 278.618 606.618 278.944 606.272 279.249L605.943 278.876C605.287 279.455 604.556 279.953 603.767 280.355C602.638 280.931 601.305 281.222 599.411 281.365L599.448 281.862C598.741 281.916 597.964 281.949 597.101 281.969L597.09 281.47C595.757 281.5 594.216 281.5 592.4 281.5H588.423V282H586.435V281.5H578.48V282H576.491V281.5H568.537V282H566.549V281.5H558.595V282H556.605V281.5H548.651V282H546.663V281.5H538.709V282H536.72V281.5H528.766V282H526.777V281.5H518.823V282H516.834V281.5H508.88V282H506.892V281.5H498.938V282H496.948V281.5H488.994V282H487.006V281.5H479.052V282H477.062V281.5H469.108V282H467.12V281.5H459.166V282H457.177V281.5H449.223V282H447.234V281.5H439.28V282H437.291V281.5H429.337V282H427.349V281.5H419.395V282H417.405V281.5H409.451V282H407.463V281.5H399.509V282H397.52V281.5H389.565V282H387.577V281.5H379.623V282H377.635V281.5H369.68V282H367.691V281.5H359.737V282H357.749V281.5H349.794V282H347.806V281.5H339.852V282H337.863V281.5H329.908V282H327.92V281.5H319.966V282H317.978V281.5H310.022V282H308.034V281.5H300.08V282H298.092V281.5H290.137V282H288.148V281.5H280.194V282H278.206V281.5H270.251V282H268.263V281.5H260.309V282H258.32V281.5H250.365V282H248.377V281.5H240.423V282H238.435V281.5H230.479V282H228.491V281.5H220.537V282H218.549V281.5H210.594V282H208.605V281.5H200.651V282H198.663V281.5H190.708V282H188.72V281.5H180.766V282H178.777V281.5H170.822V282H168.834V281.5H160.88V282H158.892V281.5H150.937V282H148.948V281.5H140.994V282H139.006V281.5H131.051V282H129.062V281.5H121.108V282H119.12V281.5H111.165V282H109.177V281.5H101.223V282H99.2344V281.5H91.2793V282H89.291V281.5H81.3369V282H79.3486V281.5H71.3936V282H69.4053V281.5H61.4512V282H59.4629V281.5H51.5078V282H49.5195V281.5H41.5654V282H39.5771V281.5H35.5996C33.7836 281.5 32.2423 281.5 30.9092 281.47L30.8984 281.969C30.0353 281.949 29.2582 281.916 28.5508 281.862L28.5889 281.365C26.6946 281.222 25.3625 280.931 24.2334 280.355L23.9395 280.2C23.2619 279.828 22.6313 279.383 22.0566 278.876L21.7266 279.249C21.3809 278.944 21.0548 278.618 20.75 278.272L21.124 277.943C20.545 277.287 20.0468 276.556 19.6445 275.767L19.54 275.553C19.0334 274.469 18.7686 273.187 18.6348 271.411L18.1367 271.448C18.0834 270.741 18.05 269.964 18.0303 269.101L18.5303 269.09C18.515 268.423 18.5077 267.705 18.5039 266.926L18.5 264.4V260.421H18V258.432H18.5V250.473H18V248.483H18.5V240.525H18V238.536H18.5V230.577H18V228.588H18.5V220.63H18V218.64H18.5V210.682H18V208.692H18.5V200.734H18V198.744H18.5V190.786H18V188.797H18.5V180.838H18V178.849H18.5V170.891H18V168.9H18.5V160.942H18V158.953H18.5V150.995H18V149.005H18.5V141.047H18V139.058H18.5V131.1H18V129.109H18.5V121.151H18V119.162H18.5V111.203H18V109.214H18.5V101.256H18V99.2656H18.5V91.3076H18V89.3184H18.5V81.3604H18V79.3701H18.5V71.4121H18V69.4229H18.5V61.4639H18V59.4746H18.5V51.5166H18V49.5273H18.5V41.5684H18V39.5791H18.5V35.5996C18.5 33.7838 18.4998 32.2432 18.5303 30.9102L18.0303 30.8984C18.05 30.0353 18.0834 29.2582 18.1367 28.5508L18.6348 28.5889C18.7686 26.8128 19.0334 25.5309 19.54 24.4473L19.6445 24.2334C20.0468 23.4439 20.545 22.7134 21.124 22.0566L20.75 21.7266C21.0548 21.3809 21.3809 21.0548 21.7266 20.75L22.0566 21.124C22.6313 20.6174 23.2619 20.1725 23.9395 19.7998L24.2334 19.6445C25.3625 19.0693 26.6945 18.7775 28.5889 18.6348L28.5508 18.1367C29.2582 18.0834 30.0353 18.05 30.8984 18.0303L30.9102 18.5303C32.2432 18.4998 33.7838 18.5 35.5996 18.5H39.5771V18H41.5654V18.5H49.5195V18H51.5088V18.5H59.4629V18H61.4512V18.5H69.4053V18H71.3945V18.5H79.3486V18H81.3369V18.5H89.291V18H91.2803V18.5H99.2344V18H101.223V18.5H109.177V18H111.166V18.5H119.12V18H121.108V18.5H129.062V18H131.052V18.5H139.006V18H140.994V18.5H148.948V18H150.938V18.5H158.892V18H160.88V18.5H168.834V18H170.823V18.5H178.777V18H180.766V18.5H188.72V18H190.709V18.5H198.663V18H200.651V18.5H208.605V18H210.595V18.5H218.549V18H220.537V18.5H228.491V18H230.48V18.5H238.435V18H240.423V18.5H248.377V18H250.365V18.5H258.32V18H260.309V18.5H268.263V18H270.251V18.5H278.206V18H280.194V18.5H288.148V18H290.137V18.5H298.092V18H300.08V18.5H308.034V18H310.022V18.5H317.978V18H319.966V18.5H327.92V18H329.908V18.5H337.863V18H339.852V18.5H347.806V18H349.794V18.5H357.749V18H359.737V18.5H367.691V18H369.68V18.5H377.635V18H379.623V18.5H387.577V18H389.565V18.5H397.521V18H399.509V18.5H407.463V18H409.451V18.5H417.406V18H419.395V18.5H427.349V18H429.337V18.5H437.292V18H439.28V18.5H447.234V18H449.223V18.5H457.178V18H459.166V18.5H467.12V18H469.108V18.5H477.063V18H479.052V18.5H487.006V18H488.994V18.5H496.949V18H498.938V18.5H506.892V18H508.88V18.5H516.835V18H518.823V18.5H526.777V18H528.766V18.5H536.721V18H538.709V18.5H546.663V18H548.651V18.5H556.606V18H558.595V18.5H566.549V18H568.537V18.5H576.492V18H578.48V18.5H586.435V18H588.423Z" stroke="black" stroke-dasharray="8 2"/>
</g>
</g>
<defs>
<radialGradient id="paint0_radial_28_96" cx="0" cy="0" r="1" gradientUnits="userSpaceOnUse" gradientTransform="translate(320.75 116.5) rotate(-179.683) scale(361.256 361.255)">
<stop offset="0.158654" stop-color="#FBCC0A" stop-opacity="0.71"/>
<stop offset="0.599587" stop-color="#FF9BD0"/>
<stop offset="1" stop-color="#9707FF" stop-opacity="0.71"/>
</radialGradient>
</defs>
</svg>
